{"title":"Pacific Rim 2013 READNFO NEW SOURCE HDCAM XViD SAF","uid":8808543,"size":1538429281,"categoryP":"video","categoryS":"movies","magnet":"?xt=urn:btih:a91864643d768d12af6ab4ea61021dc15dc5c50a&amp;dn=Pacific+Rim+2013+READNFO+NEW+SOURCE+HDCAM+XViD+SAF&amp;tr=udp%3A%2F%2Ftracker.openbittorrent.com%3A80&amp;tr=udp%3A%2F%2Fopen.demonii.com%3A1337&amp;tr=udp%3A%2F%2Ftracker.coppersurfer.tk%3A6969&amp;tr=udp%3A%2F%2Fexodus.desync.com%3A6969","seeders":1,"leechers":0,"uploader":"srkfan","files":3,"time":1376353628,"description":"[b]SilverTorrent - Clean And Verified Torrents Download[/b]\n\n------------------------------------------------------\n &lt;a href=&quot;\nhttp://img12.imageshack.us/img12/9238/0kt7.jpg&quot; rel=&quot;nofollow&quot; target=&quot;_NEW&quot;&gt;\nhttp://img12.imageshack.us/img12/9238/0kt7.jpg&lt;/a&gt;\n\n &lt;a href=&quot;\nhttp://www.imdb.com/title/tt1663662/&quot; rel=&quot;nofollow&quot; target=&quot;_NEW&quot;&gt;\nhttp://www.imdb.com/title/tt1663662/&lt;/a&gt;\n\nFormat                                   : AVI\nFormat/Info                              : Audio Video Interleave\nFile size                                : 1.43 GiB\nDuration                                 : 2h 1mn\nOverall bit rate                         : 1 682 Kbps\nWriting application                      : VirtualDubMod 1.5.10.2 (build 2540/release)\nWriting library                          : VirtualDubMod build 2540/release\n\nVideo\nID                                       : 0\nFormat                                   : MPEG-4 Visual\nFormat profile                           : Advanced Simple@L5\nFormat settings, BVOP                    : 2\nFormat settings, QPel                    : No\nFormat settings, GMC                     : No warppoints\nFormat settings, Matrix                  : Default (H.263)\nMuxing mode                              : Packed bitstream\nCodec ID                                 : XVID\nCodec ID/Hint                            : XviD\nDuration                                 : 2h 1mn\nBit rate                                 : 1 478 Kbps\nWidth                                    : 720 pixels\nHeight                                   : 318 pixels\nDisplay aspect ratio                     : 2.25:1\nFrame rate                               : 29.970 fps\nColor space                              : YUV\nChroma subsampling                       : 4:2:0\nBit depth                                : 8 bits\nScan type                                : Progressive\nCompression mode                         : Lossy\nBits/(Pixel*Frame)                       : 0.215\nStream size                              : 1.25 GiB (88%)\nWriting library                          : XviD 64\n\nAudio\nID                                       : 1\nFormat                                   : AC-3\nFormat/Info                              : Audio Coding 3\nMode extension                           : CM (complete main)\nFormat settings, Endianness              : Big\nCodec ID                                 : 2000\nDuration                                 : 2h 1mn\nBit rate mode                            : Constant\nBit rate                                 : 192 Kbps\nChannel(s)                               : 2 channels\nChannel positions                        : Front: L R\nSampling rate                            : 48.0 KHz\nBit depth                                : 16 bits\nCompression mode                         : Lossy\nStream size                              : 167 MiB (11%)\nAlignment                                : Split accross interleaves\nInterleave, duration                     : 33 ms (1.00 video frame)\nInterleave, preload duration             : 500 ms\n\nSource Used         SmY  VOBS :bow:            - Thanks\n\nGreets now going out to !\n\nJUSTiCE,FooKAS,KiSSMYACE,MiLLENiUM and the rest can just KMA      :lol:\n\n[b]\nREADNFO those claiming this is same source ..............before you open mouth get facts right ....Check ravers release a few lines of hardcoded subs some pretty high up screen.Compare that to this no blur no crop but hey presto no italian subs .Theres other reason but like i give a crap ......GET FACTS correct\n\nBefore you also question vobs i dont see them,just because you dont see them dont mean not real..SmY assures me the vobs will be uploaded in time\n\nWould have been a repack if not for mr smy thank you ;-)\n[/b]\n\nEnjoy\n\n\nCropped bottom line of subs away as vid was already embedded seen as it was cammed in china :lol:\n &lt;a href=&quot;\nhttp://img534.imageshack.us/img534/2082/6djw.png&quot; rel=&quot;nofollow&quot; target=&quot;_NEW&quot;&gt;\nhttp://img534.imageshack.us/img534/2082/6djw.png&lt;/a&gt; &lt;a href=&quot;\nhttp://img12.imageshack.us/img12/5930/odh4.png&quot; rel=&quot;nofollow&quot; target=&quot;_NEW&quot;&gt;\nhttp://img12.imageshack.us/img12/5930/odh4.png&lt;/a&gt; &lt;a href=&quot;\nhttp://img825.imageshack.us/img825/4434/d1ii.png&quot; rel=&quot;nofollow&quot; target=&quot;_NEW&quot;&gt;\nhttp://img825.imageshack.us/img825/4434/d1ii.png&lt;/a&gt; &lt;a href=&quot;\nhttp://img839.imageshack.us/img839/2512/qqql.png&quot; rel=&quot;nofollow&quot; target=&quot;_NEW&quot;&gt;\nhttp://img839.imageshack.us/img839/2512/qqql.png&lt;/a&gt; &lt;a href=&quot;\nhttp://img545.imageshack.us/img545/3130/d3jz.png&quot; rel=&quot;nofollow&quot; target=&quot;_NEW&quot;&gt;\nhttp://img545.imageshack.us/img545/3130/d3jz.png&lt;/a&gt; &lt;a href=&quot;\nhttp://img833.imageshack.us/img833/8349/x6zo.png&quot; rel=&quot;nofollow&quot; target=&quot;_NEW&quot;&gt;\nhttp://img833.imageshack.us/img833/8349/x6zo.png&lt;/a&gt; &lt;a href=&quot;\nhttp://img41.imageshack.us/img41/8227/00y1.png&quot; rel=&quot;nofollow&quot; target=&quot;_NEW&quot;&gt;\nhttp://img41.imageshack.us/img41/8227/00y1.png&lt;/a&gt;","torrent":{"xt":"urn:btih:a91864643d768d12af6ab4ea61021dc15dc5c50a","amp;dn":"Pacific+Rim+2013+READNFO+NEW+SOURCE+HDCAM+XViD+SAF","amp;tr":["udp%3A%2F%2Ftracker.openbittorrent.com%3A80","udp%3A%2F%2Fopen.demonii.com%3A1337","udp%3A%2F%2Ftracker.coppersurfer.tk%3A6969","udp%3A%2F%2Fexodus.desync.com%3A6969"],"infoHash":"a91864643d768d12af6ab4ea61021dc15dc5c50a","infoHashBuffer":{"type":"Buffer","data":[169,24,100,100,61,118,141,18,175,106,180,234,97,2,29,193,93,197,197,10]},"announce":[],"urlList":[]}}